<?xml version="1.0" encoding="utf-8"?>
<!-- Generator: Adobe Illustrator 26.1.0, SVG Export Plug-In . SVG Version: 6.00 Build 0)  -->
<svg version="1.1" id="Layer_1" xmlns="http://www.w3.org/2000/svg" xmlns:xlink="http://www.w3.org/1999/xlink" x="0px" y="0px"
	 viewBox="0 0 333.18 304.21" style="enable-background:new 0 0 333.18 304.21;" xml:space="preserve">
<g>
	<path d="M317.76,131.52c5.33,11.56,7.69,23.41,9.98,35.25c5,25.82,6.51,51.86,4.7,78.11c-0.64,9.32-3.5,17.7-8.97,25.3
		c-6.45,8.95-13.05,17.7-22.18,24.19c-9.03,6.42-18.87,9.86-30.09,9.77c-21.49-0.18-42.99-0.01-64.48,0.07
		c-6.96,0.03-13-2.08-18.37-6.6c-10.94-9.19-21.5-18.69-29.69-30.54c-7.69-11.12-11.53-23.32-12.45-36.87
		c-2.26-33.22,2.59-65.45,12.06-97.15c0.71-2.36,1.81-4.61,2.94-7.45c3.86,3.45,7.53,6.4,10.82,9.74
		c5.26,5.33,10.41,10.8,15.34,16.44c3.55,4.06,7.48,5.65,12.99,4.97c20.88-2.58,41.87-2.71,62.87-1.75
		c6.74,0.31,13.48,0.67,20.2,1.15c3.77,0.27,6.74-1.03,9.47-3.56c6.12-5.65,12.33-11.2,18.61-16.68
		C313.35,134.29,315.54,133.06,317.76,131.52z M247.92,233.93c2.1-1.8,4.08-3.59,6.16-5.24c2.85-2.27,6-3.03,9.61-1.94
		c1.31,0.39,2.8,0.4,4.18,0.26c14.96-1.48,29.07-15.45,30.8-30.44c1.56-13.49-8.27-23.4-21.77-21.95
		c-18.77,2.01-32.76,19.99-29.96,38.59c0.41,2.72-0.21,4.86-2.16,6.78c-17.57,17.29-35.11,34.61-52.64,51.95
		c-1.1,1.09-1.98,2.41-3.11,3.81c3.02,2.88,5.88,5.61,8.86,8.45c13.73-14.12,27.28-28.06,41.09-42.28
		c6.49,6.56,12.72,12.91,19.01,19.21c6.77,6.77,13.59,13.5,20.43,20.2c0.56,0.55,1.83,1.24,2.16,1.01c2.92-2.12,5.71-4.42,8.57-6.7
		C275.26,261.58,261.69,247.86,247.92,233.93z M189.1,177.9c-0.65,0.8-1.68,1.89-2.5,3.12c-5.86,8.79-4.54,21.42,3.11,29.23
		c5.42,5.53,10.95,10.95,16.45,16.4c2.94,2.92,5.91,5.82,8.81,8.68c5.34-5.43,10.64-10.81,16.1-16.36
		C217.3,205.49,203.34,191.83,189.1,177.9z"/>
	<path d="M253.02,40.64c-0.37,1.92-0.65,5.9-1.91,9.54c-5.8,16.75-11.14,33.71-18.02,50.01c-8.65,20.5-25.31,31.92-46.81,31.69
		c-8.72-0.09-16.73-2.54-23.84-7.71c-2.5-1.82-2.7-1.74-3.69,1.14c-3.83,11.1-7.65,22.21-11.49,33.3
		c-1.68,4.84-4.22,9.04-8.84,11.67c-8.23,4.68-19.42,0.7-21.8-7.84c-0.99-3.58-0.31-7.08,0.89-10.53
		c7.57-21.69,15.11-43.4,22.7-65.09c8.16-23.34,16.35-46.67,24.58-69.99c0.97-2.73,2.08-5.47,3.52-7.97
		c3.4-5.86,8.57-8.87,15.43-8.86c3.87,0,7.15,1.35,9.87,4.08c1,1,2.03,2,2.87,3.13c1.22,1.64,2.37,1.79,4.41,1.08
		c14.3-5.02,27.85-2.92,40.1,5.7C249.31,19.83,252.84,28.54,253.02,40.64z M219.86,47.46c-0.02-9.46-4.55-15.29-10.95-16.29
		c-8.45-1.33-17.44,3.42-20.39,11.5c-5.13,14.07-9.96,28.27-14.65,42.5c-2.23,6.77,1.25,13.6,7.78,16.47
		c9.1,4.01,19.91-0.43,23.67-10.07c3.93-10.08,7.66-20.24,11.12-30.49C218.16,55.99,219.08,50.64,219.86,47.46z"/>
	<path d="M90.7,5.91c11.04,0.12,23.16,5.35,31.81,17.56c2.8,3.96,4.38,8.38,4.72,13.25c0.46,6.75-2.96,12.2-9.17,14.48
		c-5.84,2.15-11.85,0.13-15.77-5.38c-1.83-2.58-3.38-5.37-5.34-7.84c-5.09-6.44-12.61-7.26-19.16-2.24
		c-4.73,3.63-5.94,8.48-3.31,13.96c3.77,7.87,9.04,14.75,14.54,21.46c4.43,5.41,9.03,10.7,13.23,16.29
		c19.92,26.53,12.19,56.58-12.86,74c-21.62,15.03-49.97,13.54-69.13,0.14c-14.85-10.39-22.21-24.7-19.83-43.22
		c0.9-6.97,6.6-12.04,14.06-12.54c7.14-0.48,13.21,3.82,14.81,10.76c0.59,2.57,0.88,5.27,0.87,7.91
		c-0.04,8.31,3.44,14.49,10.84,18.24c10.38,5.26,20.52,4.62,29.93-2.23c10.85-7.89,13.19-22.69,5.25-33.53
		c-5.9-8.06-12.35-15.72-18.38-23.68c-3.71-4.91-7.41-9.88-10.57-15.15C33.21,44.74,43.96,22.36,63.57,11.7
		C70.88,7.72,78.77,5.91,90.7,5.91z"/>
</g>
</svg>
